<svg xmlns="http://www.w3.org/2000/svg" version="1.1" xmlns:xlink="http://www.w3.org/1999/xlink" width="600" height="571" viewBox="0 0 600 571"><svg xml:space="preserve" width="600" height="571" data-version="2" data-id="lg_PjXT4JrFcnxxKGGBpa" viewBox="0 0 755 571" x="0" y="0"><rect width="100%" height="100%" fill="transparent"></rect><path fill="none" stroke="#000" stroke-width=".5" d="M210 380.57q-11.89 0-20.9-1.29-9.02-1.29-15.36-3.07V325.1q6.34 1.39 13.57 2.67 7.24 1.29 15.36 1.29 10.7 0 19.21-4.06 8.52-4.06 13.48-15.35 4.95-11.29 4.95-32.49V5.75h61.41v271.01q0 37.25-11.59 60.13-11.59 22.88-32.29 33.28-20.7 10.4-47.84 10.4ZM572.74 5.75v289.63h-78.06L368.69 76.28h-1.79q.8 13.67 1.39 27.54.6 13.86 1.19 27.63t1.19 27.64v136.29h-54.88V5.75h77.46l125.8 216.93h1.39q-.4-13.47-.99-26.75-.6-13.27-1.09-26.54-.5-13.27-.9-26.55V5.75z" paint-order="stroke"></path><path fill="none" stroke="#000" stroke-width=".5" d="M419.2 561.29H240.31V271.66h61.41v238.92H419.2z" paint-order="stroke"></path><path fill="none" stroke="#000" stroke-width=".5" d="M581.65 480.86q0 25.75-12.48 44.77-12.48 19.02-36.35 29.32t-57.95 10.3q-15.05 0-29.42-1.98-14.36-1.98-27.53-5.84-13.18-3.86-25.06-9.61v-57.05q20.6 9.11 42.79 16.44 22.18 7.33 43.98 7.33 15.05 0 24.26-3.96 9.22-3.97 13.38-10.9t4.16-15.85q0-10.89-7.33-18.62t-20.11-14.46q-12.78-6.74-28.83-14.46-10.1-4.76-21.99-11.59-11.88-6.84-22.58-16.74-10.7-9.91-17.53-24.07-6.84-14.17-6.84-33.98 0-25.95 11.89-44.37 11.89-18.43 33.98-28.23 22.08-9.81 52.2-9.81 22.58 0 43.08 5.25 20.51 5.25 42.89 15.16l-19.81 47.74q-20.01-8.12-35.85-12.58-15.85-4.46-32.3-4.46-11.49 0-19.61 3.67-8.12 3.66-12.28 10.3-4.16 6.64-4.16 15.35 0 10.3 6.04 17.34 6.04 7.03 18.23 13.57 12.18 6.53 30.41 15.25 22.18 10.5 37.93 21.89t24.27 26.75q8.52 15.35 8.52 38.13Z" paint-order="stroke"></path><path fill="#915eff" d="M210 380.57q-11.89 0-20.9-1.29-9.02-1.29-15.36-3.07V325.1q6.34 1.39 13.57 2.67 7.24 1.29 15.36 1.29 10.7 0 19.21-4.06 8.52-4.06 13.48-15.35 4.95-11.29 4.95-32.49V5.75h61.41v271.01q0 37.25-11.59 60.13-11.59 22.88-32.29 33.28-20.7 10.4-47.84 10.4M572.74 5.75v289.63h-78.06L368.69 76.28h-1.79q.8 13.67 1.39 27.54.6 13.86 1.19 27.63t1.19 27.64v136.29h-54.88V5.75h77.46l125.8 216.93h1.39q-.4-13.47-.99-26.75-.6-13.27-1.09-26.54-.5-13.27-.9-26.55V5.75z" paint-order="stroke"></path><path fill="#915eff" d="M419.2 561.29H240.31V271.66h61.41v238.92H419.2z" paint-order="stroke"></path><path fill="#915eff" d="M581.65 480.86q0 25.75-12.48 44.77-12.48 19.02-36.35 29.32t-57.95 10.3q-15.05 0-29.42-1.98-14.36-1.98-27.53-5.84-13.18-3.86-25.06-9.61v-57.05q20.6 9.11 42.79 16.44 22.18 7.33 43.98 7.33 15.05 0 24.26-3.96 9.22-3.97 13.38-10.9t4.16-15.85q0-10.89-7.33-18.62t-20.11-14.46q-12.78-6.74-28.83-14.46-10.1-4.76-21.99-11.59-11.88-6.84-22.58-16.74-10.7-9.91-17.53-24.07-6.84-14.17-6.84-33.98 0-25.95 11.89-44.37 11.89-18.43 33.98-28.23 22.08-9.81 52.2-9.81 22.58 0 43.08 5.25 20.51 5.25 42.89 15.16l-19.81 47.74q-20.01-8.12-35.85-12.58-15.85-4.46-32.3-4.46-11.49 0-19.61 3.67-8.12 3.66-12.28 10.3-4.16 6.64-4.16 15.35 0 10.3 6.04 17.34 6.04 7.03 18.23 13.57 12.18 6.53 30.41 15.25 22.18 10.5 37.93 21.89t24.27 26.75q8.52 15.35 8.52 38.13M181.046 125.508 7.495 233.978v36.445l173.55 108.468 22.561-36.445L59.561 252.2l144.046-90.246z" paint-order="stroke"></path><path fill="#915eff" d="M551.393 161.954 695.439 252.2l-144.046 90.246 22.562 36.445 173.55-108.468v-36.446l-173.55-108.469zM435.984 134.58l36.185 24.036-173.81 260.672-36.098-24.037z"></path></svg></svg>